<svg width="70" height="70" viewBox="0 0 7 7" fill="none" xmlns="http://www.w3.org/2000/svg">
<g clipPath="url(#clip0_201_23563)">
<path d="M3.33201 2.80768C3.61801 2.80768 3.85125 3.04092 3.85125 3.33248C3.85125 3.61015 3.61801 3.84617 3.33201 3.84617C3.046 3.84617 2.81276 3.61015 2.81276 3.33248C2.81276 3.04092 3.046 2.80768 3.33201 2.80768ZM2.04639 5.55384C2.22132 5.65936 2.60451 5.49831 3.046 5.0818C2.90162 4.91798 2.76 4.74027 2.62672 4.55423C2.39903 4.53201 2.17412 4.49869 1.96031 4.45427C1.8187 5.04848 1.87146 5.45666 2.04639 5.55384ZM2.24354 3.96001L2.16301 3.8184C2.13247 3.89893 2.10192 3.97945 2.08249 4.0572C2.15746 4.07386 2.24076 4.08774 2.32684 4.10162C2.29907 4.05442 2.2713 4.00722 2.24354 3.96001ZM4.0595 3.74898L4.28442 3.33248L4.0595 2.91597C3.9762 2.76881 3.88735 2.6383 3.80682 2.5078C3.65688 2.49947 3.49861 2.49947 3.33201 2.49947C3.1654 2.49947 3.00713 2.49947 2.85719 2.5078C2.77666 2.6383 2.68781 2.76881 2.60451 2.91597L2.3796 3.33248L2.60451 3.74898C2.68781 3.89615 2.77666 4.02665 2.85719 4.15716C3.00713 4.16549 3.1654 4.16549 3.33201 4.16549C3.49861 4.16549 3.65688 4.16549 3.80682 4.15716C3.88735 4.02665 3.9762 3.89615 4.0595 3.74898ZM3.33201 1.88304C3.27925 1.94412 3.22371 2.00799 3.16818 2.08296C3.22371 2.08296 3.27647 2.08296 3.33201 2.08296C3.38754 2.08296 3.4403 2.08296 3.49583 2.08296C3.4403 2.00799 3.38476 1.94412 3.33201 1.88304ZM3.33201 4.78192C3.38476 4.72083 3.4403 4.65697 3.49583 4.582C3.4403 4.582 3.38754 4.582 3.33201 4.582C3.27647 4.582 3.22371 4.582 3.16818 4.582C3.22371 4.65697 3.27925 4.72083 3.33201 4.78192ZM4.61484 1.11111C4.44269 1.0056 4.0595 1.16665 3.61801 1.58315C3.76239 1.74698 3.90401 1.92469 4.03729 2.11073C4.26498 2.13294 4.48989 2.16626 4.7037 2.21069C4.84531 1.61647 4.79255 1.2083 4.61484 1.11111ZM4.42047 2.70494L4.501 2.84655C4.53154 2.76603 4.56209 2.6855 4.58152 2.60776C4.50655 2.5911 4.42325 2.57721 4.33717 2.56333C4.36494 2.61053 4.39271 2.65774 4.42047 2.70494ZM4.8231 0.747363C5.23127 0.980607 5.2757 1.59426 5.10354 2.31065C5.80883 2.5189 6.31697 2.86321 6.31697 3.33248C6.31697 3.80174 5.80883 4.14605 5.10354 4.35431C5.2757 5.0707 5.23127 5.68435 4.8231 5.91759C4.4177 6.15083 3.86513 5.88427 3.33201 5.37613C2.79888 5.88427 2.24631 6.15083 1.83814 5.91759C1.43274 5.68435 1.38831 5.0707 1.56047 4.35431C0.855183 4.14605 0.347046 3.80174 0.347046 3.33248C0.347046 2.86321 0.855183 2.5189 1.56047 2.31065C1.38831 1.59426 1.43274 0.980607 1.83814 0.747363C2.24631 0.51412 2.79888 0.780684 3.33201 1.28882C3.86513 0.780684 4.4177 0.51412 4.8231 0.747363ZM4.74257 3.33248C4.83698 3.54073 4.92028 3.74898 4.9897 3.96001C5.57281 3.78508 5.90046 3.53518 5.90046 3.33248C5.90046 3.12978 5.57281 2.87987 4.9897 2.70494C4.92028 2.91597 4.83698 3.12422 4.74257 3.33248ZM1.92144 3.33248C1.82703 3.12422 1.74373 2.91597 1.67431 2.70494C1.0912 2.87987 0.763552 3.12978 0.763552 3.33248C0.763552 3.53518 1.0912 3.78508 1.67431 3.96001C1.74373 3.74898 1.82703 3.54073 1.92144 3.33248ZM4.42047 3.96001C4.39271 4.00722 4.36494 4.05442 4.33717 4.10162C4.42325 4.08774 4.50655 4.07386 4.58152 4.0572C4.56209 3.97945 4.53154 3.89893 4.501 3.8184L4.42047 3.96001ZM3.61801 5.0818C4.0595 5.49831 4.44269 5.65936 4.61484 5.55384C4.79255 5.45666 4.84531 5.04848 4.7037 4.45427C4.48989 4.49869 4.26498 4.53201 4.03729 4.55423C3.90401 4.74027 3.76239 4.91798 3.61801 5.0818ZM2.24354 2.70494C2.2713 2.65774 2.29907 2.61053 2.32684 2.56333C2.24076 2.57721 2.15746 2.5911 2.08249 2.60776C2.10192 2.6855 2.13247 2.76603 2.16301 2.84655L2.24354 2.70494ZM3.046 1.58315C2.60451 1.16665 2.22132 1.0056 2.04639 1.11111C1.87146 1.2083 1.8187 1.61647 1.96031 2.21069C2.17412 2.16626 2.39903 2.13294 2.62672 2.11073C2.76 1.92469 2.90162 1.74698 3.046 1.58315Z" fill="white"/>
</g>
<defs>
<clipPath id="clip0_201_23563">
<rect width="6.6641" height="6.6641" fill="white"/>
</clipPath>
</defs>
</svg>
